<?xml version="1.0" standalone="no"?>
<!DOCTYPE svg PUBLIC "-//W3C//DTD SVG 20010904//EN"
 "http://www.w3.org/TR/2001/REC-SVG-20010904/DTD/svg10.dtd">
<svg version="1.0" xmlns="http://www.w3.org/2000/svg"
 width="1008.000000pt" height="1056.000000pt" viewBox="0 0 1008.000000 1056.000000"
 preserveAspectRatio="xMidYMid meet">

<g transform="translate(0.000000,1056.000000) scale(0.100000,-0.100000)"
fill="#000000" stroke="none">
<path d="M7540 9510 c-12 -8 -9 -10 12 -10 15 0 30 -5 34 -12 4 -6 3 -8 -4 -4
-6 3 -14 1 -18 -5 -4 -7 -3 -9 2 -6 14 8 27 -2 58 -48 18 -26 26 -33 24 -20
-3 27 9 45 31 45 24 0 43 23 35 43 -4 11 -19 15 -57 14 -29 -1 -63 2 -77 6
-14 4 -32 3 -40 -3z"/>
<path d="M6187 9457 c-10 -18 -15 -41 -11 -50 9 -24 -21 -82 -55 -106 -24 -17
-29 -28 -29 -67 -1 -26 1 -51 4 -55 8 -14 33 2 27 17 -3 8 1 14 8 14 7 0 9 3
6 6 -4 4 1 14 11 23 16 16 24 33 25 58 0 7 4 10 8 8 12 -8 32 24 33 53 1 15 5
33 9 40 5 6 6 12 3 12 -3 0 -1 11 4 25 7 18 6 25 -3 26 -6 0 -3 4 8 9 11 5 15
9 8 9 -6 1 -17 3 -25 6 -8 3 -20 -8 -31 -28z"/>
<path d="M7406 9450 c-5 -19 -8 -39 -7 -44 1 -4 -3 -14 -9 -21 -8 -9 -6 -14 6
-19 12 -4 15 -15 12 -39 l-4 -33 52 1 c28 1 61 9 73 17 21 15 21 16 2 21 -24
6 -61 64 -54 84 3 7 2 13 -3 11 -21 -5 -53 15 -56 35 -3 17 -5 15 -12 -13z"/>
<path d="M7201 9350 c-18 -4 -37 -13 -41 -20 -4 -6 -18 -17 -30 -23 -36 -19
-49 -46 -27 -58 10 -6 17 -20 16 -32 -2 -12 1 -32 5 -45 5 -15 2 -31 -9 -49
-14 -21 -15 -27 -4 -34 22 -13 29 -11 66 21 18 17 38 30 44 30 6 0 34 11 62
24 29 13 69 31 90 40 41 17 44 23 22 52 -8 10 -15 33 -15 51 0 25 -4 31 -15
27 -8 -4 -17 1 -21 10 -7 18 -80 21 -143 6z"/>
<path d="M5300 9336 c0 -2 13 -6 29 -8 17 -2 28 -1 25 4 -5 8 -54 12 -54 4z"/>
<path d="M6744 9325 c-11 -8 -36 -15 -56 -15 -75 0 -86 -19 -38 -72 18 -20 28
-39 24 -50 -3 -10 3 -21 16 -28 12 -7 20 -21 20 -38 0 -34 25 -118 34 -114 3
1 15 2 26 2 15 0 20 7 20 24 0 21 5 25 38 28 35 3 37 5 37 36 0 21 7 39 19 47
19 14 19 15 0 20 -38 13 -49 23 -52 49 -3 21 5 36 33 62 l36 34 -48 0 c-27 0
-58 7 -69 15 -19 12 -24 12 -40 0z"/>
<path d="M5024 9322 c-6 -4 -14 -18 -18 -32 -6 -19 -5 -21 3 -10 6 8 11 10 11
4 0 -16 38 -25 47 -12 3 6 1 8 -4 5 -10 -6 -21 9 -23 31 -1 4 9 10 22 14 23 6
23 6 -2 7 -14 0 -30 -3 -36 -7z"/>
<path d="M5615 9307 c-4 -9 -18 -17 -30 -17 -13 0 -31 -7 -40 -16 -9 -9 -37
-19 -63 -22 -26 -2 -54 -11 -63 -19 -9 -7 -26 -15 -37 -18 -27 -5 -59 -38 -54
-54 3 -8 13 -22 23 -32 23 -23 12 -53 -21 -64 -11 -3 -20 -13 -20 -20 0 -18
-59 -105 -71 -105 -14 0 -11 -22 8 -42 14 -16 15 -25 6 -58 -12 -48 2 -68 33
-45 23 17 58 19 85 4 17 -9 26 -5 53 23 42 43 49 64 29 83 -17 18 -15 24 13
29 11 2 31 7 47 11 24 7 28 4 33 -24 10 -46 64 -37 64 11 0 25 42 24 65 -2 23
-25 31 -25 38 1 3 12 10 18 16 14 7 -4 11 4 11 20 0 15 5 36 11 47 12 22 4 34
-47 64 -18 11 -18 13 6 46 21 30 25 45 22 96 l-4 60 -36 0 c-25 0 -40 6 -53
23 -16 21 -18 22 -24 6z"/>
<path d="M7510 9275 c-9 -11 -17 -12 -32 -4 -32 17 -51 3 -44 -32 5 -28 3 -31
-47 -54 -28 -14 -57 -25 -63 -25 -6 0 -17 -7 -24 -15 -7 -8 -23 -15 -36 -15
-30 0 -30 -3 9 -74 40 -74 63 -90 84 -58 17 24 49 30 55 10 3 -8 21 -2 55 20
28 18 63 32 81 32 29 0 31 3 42 55 6 30 8 59 5 65 -4 6 -2 16 3 23 5 7 12 24
16 39 5 23 2 27 -24 33 -16 4 -34 4 -40 0 -5 -3 -10 -1 -10 4 0 16 -16 13 -30
-4z"/>
<path d="M5998 9263 c7 -3 16 -2 19 1 4 3 -2 6 -13 5 -11 0 -14 -3 -6 -6z"/>
<path d="M6061 9244 c0 -11 3 -14 6 -6 3 7 2 16 -1 19 -3 4 -6 -2 -5 -13z"/>
<path d="M4983 9233 c15 -2 37 -2 50 0 12 2 0 4 -28 4 -27 0 -38 -2 -22 -4z"/>
<path d="M4596 9198 c4 -7 3 -8 -4 -4 -13 8 -114 -41 -152 -73 l-25 -21 30 15
c26 13 31 13 46 -1 10 -9 20 -26 23 -40 8 -30 26 -31 26 -1 0 31 27 67 51 67
15 0 19 7 19 35 0 19 -5 35 -11 35 -5 0 -7 -5 -3 -12z"/>
<path d="M7070 9120 c-9 -6 -10 -10 -3 -10 6 0 15 5 18 10 8 12 4 12 -15 0z"/>
<path d="M6890 9085 c0 -35 -13 -45 -56 -45 -28 0 -30 -17 -6 -46 12 -14 39
-24 86 -32 72 -12 83 -19 93 -65 8 -40 35 -51 66 -27 32 25 53 25 69 1 9 -15
17 -17 41 -10 33 9 52 0 62 -32 4 -10 13 -19 21 -19 8 0 17 -7 20 -15 5 -12
16 -7 50 25 24 22 48 40 54 40 11 0 12 81 1 120 l-7 25 -12 -22 c-28 -52 -89
-13 -131 82 -11 25 -24 45 -29 45 -5 0 -19 -12 -33 -26 -19 -20 -30 -24 -54
-19 -16 3 -40 7 -53 8 -13 1 -30 10 -37 21 -11 14 -29 19 -79 21 l-66 4 0 -34z"/>
<path d="M4395 9089 c-4 -6 -5 -12 -2 -15 2 -3 7 2 10 11 7 17 1 20 -8 4z"/>
<path d="M5750 9076 c0 -2 7 -7 16 -10 8 -3 12 -2 9 4 -6 10 -25 14 -25 6z"/>
<path d="M5965 9040 c-8 -16 -15 -36 -15 -44 0 -24 -17 -28 -49 -11 -19 9 -32
11 -36 5 -9 -15 -46 -12 -66 6 -27 24 -39 8 -39 -52 0 -55 -6 -64 -28 -42 -9
9 -12 6 -12 -15 0 -19 7 -30 23 -36 12 -5 33 -20 46 -34 20 -23 22 -30 13 -57
-6 -17 -9 -37 -6 -45 4 -9 -10 -29 -35 -52 l-41 -37 31 -32 c17 -18 28 -37 24
-43 -3 -6 -1 -27 5 -46 10 -32 15 -35 49 -35 54 0 70 -16 81 -86 6 -34 19 -83
31 -108 17 -39 23 -45 35 -35 11 9 17 9 29 -1 24 -20 30 -3 12 35 -25 53 -21
77 21 118 31 31 45 37 79 37 35 0 45 5 63 29 21 30 44 42 91 46 38 3 49 13 49
40 0 25 -19 74 -29 76 -3 1 -19 3 -35 5 -37 4 -43 11 -23 27 18 14 41 92 32
108 -4 5 -4 21 -1 35 6 24 10 25 71 23 51 -2 69 2 85 16 27 24 25 30 -9 45
-16 6 -37 20 -47 31 -9 10 -25 19 -34 19 -9 0 -25 9 -36 21 -15 16 -26 19 -54
14 -49 -9 -140 -8 -140 1 0 3 7 16 16 29 27 41 12 59 -45 51 -37 -5 -51 -3
-61 9 -18 22 -28 19 -45 -15z"/>
<path d="M7478 9010 c-27 -17 -52 -30 -57 -30 -4 0 -7 -10 -5 -22 12 -91 12
-107 -4 -113 -10 -3 -39 -25 -65 -50 -26 -25 -54 -45 -62 -45 -22 0 -32 -28
-27 -80 4 -44 1 -51 -32 -86 -34 -36 -46 -64 -28 -64 4 0 13 5 19 11 40 40 47
-95 8 -171 -14 -27 -25 -62 -25 -78 0 -27 4 -30 78 -52 42 -13 81 -24 86 -25
5 0 14 15 21 34 11 32 60 91 76 91 5 0 29 14 54 32 31 22 45 39 45 54 0 13 4
25 9 29 5 3 7 29 5 58 -5 45 -1 61 30 122 l36 69 -26 21 c-23 18 -26 26 -20
56 12 53 7 132 -9 150 -9 9 -15 36 -15 67 0 47 -2 52 -22 52 -13 0 -44 -14
-70 -30z"/>
<path d="M4942 9014 c-18 -8 -30 -19 -26 -25 3 -6 -4 -21 -17 -35 l-22 -24 23
-25 c13 -14 19 -25 14 -25 -5 0 29 -14 76 -30 49 -16 89 -25 95 -20 5 4 43 12
83 15 39 4 72 10 72 12 0 3 -10 18 -21 35 l-22 30 26 26 26 25 -49 17 c-54 18
-103 16 -121 -6 -17 -21 -32 -17 -64 16 -33 34 -29 33 -73 14z"/>
<path d="M5830 9010 c-9 -6 -10 -10 -3 -10 6 0 15 5 18 10 8 12 4 12 -15 0z"/>
<path d="M4338 8978 c-15 -15 -16 -22 -6 -42 9 -21 18 -25 47 -24 20 1 30 3
23 6 -7 2 -10 8 -6 13 3 5 0 9 -6 9 -6 0 -16 12 -23 28 -11 26 -13 27 -29 10z"/>
<path d="M6620 8966 c0 -15 -6 -28 -12 -30 -7 -3 -34 -10 -60 -17 -37 -10 -47
-17 -45 -33 1 -13 -5 -22 -18 -24 -11 -2 -32 -18 -46 -36 -25 -29 -31 -31 -90
-31 l-64 0 -1 -45 c-1 -25 -6 -57 -12 -72 -10 -24 -8 -27 16 -37 15 -5 52 -21
83 -34 48 -20 59 -22 75 -10 10 7 31 13 47 13 27 0 28 2 22 30 -6 25 -4 30 13
30 11 0 25 7 32 15 16 19 70 19 115 1 38 -16 43 -32 20 -62 -16 -21 -20 -54
-7 -54 5 0 17 7 28 15 26 20 39 19 50 -6 9 -20 10 -20 37 5 20 19 35 24 52 20
20 -5 27 0 45 37 16 31 21 54 17 85 -5 49 10 72 62 94 30 12 42 30 21 30 -5 0
-10 13 -10 29 0 28 -17 50 -42 55 -7 2 -35 6 -63 10 -31 5 -56 16 -66 29 -14
17 -21 18 -47 9 -17 -6 -41 -9 -54 -6 -99 18 -98 18 -98 -10z"/>
<path d="M4860 8900 c0 -5 5 -10 10 -10 6 0 10 5 10 10 0 6 -4 10 -10 10 -5 0
-10 -4 -10 -10z"/>
<path d="M4826 8855 c-15 -8 -36 -15 -46 -15 -35 0 -105 -86 -105 -130 0 -22
-6 -26 -52 -33 -52 -8 -53 -9 -53 -42 0 -28 8 -40 40 -66 44 -36 51 -62 20
-81 -32 -20 -21 -76 22 -106 10 -7 18 -20 18 -28 0 -8 9 -14 19 -14 28 0 36
-18 17 -39 -21 -23 -20 -31 2 -31 27 0 50 -30 54 -70 3 -33 5 -35 35 -32 22 2
37 -3 53 -20 20 -22 22 -22 32 -4 18 33 48 56 78 62 22 5 30 13 35 36 7 32 82
88 117 88 10 0 37 18 59 41 21 22 52 45 68 50 18 7 35 25 51 55 12 25 28 48
35 51 11 4 11 10 2 30 -10 23 -9 28 11 41 26 17 27 32 7 72 -13 25 -19 28 -49
23 -31 -5 -41 0 -85 38 -28 24 -50 49 -51 56 0 6 14 16 30 22 35 12 41 24 8
16 -13 -3 -39 -7 -58 -9 -19 -2 -43 -6 -52 -10 -10 -5 -41 1 -75 14 -32 12
-70 24 -86 27 -15 3 -30 9 -33 14 -8 13 -35 11 -68 -6z m74 -147 c0 -7 -14
-21 -30 -30 -16 -9 -37 -33 -47 -52 -19 -42 -32 -47 -29 -11 4 36 30 70 68 88
40 20 38 20 38 5z m149 -32 c17 -18 19 -24 7 -22 -19 3 -29 12 -32 31 -3 20
-1 19 25 -9z m-99 -71 c0 -20 5 -25 25 -25 14 0 25 -4 25 -10 0 -5 -11 -10
-25 -10 -20 0 -25 -5 -25 -25 0 -17 -6 -25 -17 -25 -9 0 -13 3 -10 6 11 12
-13 44 -33 44 -11 0 -20 5 -20 10 0 6 11 10 25 10 14 0 26 5 26 10 1 6 3 15 4
20 1 6 3 12 4 15 4 17 21 1 21 -20z m114 -132 c-28 -37 -66 -58 -90 -49 -17 7
-14 10 18 27 20 10 45 30 55 43 11 15 22 21 27 15 6 -5 2 -19 -10 -36z m-216
4 c22 -23 28 -34 17 -34 -8 0 -15 4 -15 9 0 5 -4 7 -9 3 -9 -5 -41 31 -41 47
0 16 17 7 48 -25z"/>
<path d="M7077 8850 c-14 -11 -32 -20 -40 -20 -9 0 -19 -5 -22 -10 -4 -6 -22
-17 -41 -25 -33 -13 -34 -16 -34 -67 0 -34 -7 -68 -20 -93 -18 -36 -18 -40 -4
-56 16 -18 16 -40 -1 -99 l-8 -25 22 23 c12 12 28 22 36 22 26 0 37 -68 28
-168 l-9 -93 64 -42 c35 -23 57 -43 49 -45 -8 -2 -35 11 -60 29 -31 22 -60 33
-93 36 -26 2 -55 10 -64 17 -8 8 -34 22 -57 31 -39 16 -44 16 -70 0 -27 -16
-36 -16 -155 4 -154 26 -165 26 -173 1 -7 -21 14 -69 39 -89 20 -17 20 -44 0
-83 -29 -56 -32 -83 -18 -144 7 -33 14 -75 14 -96 l0 -36 143 -4 c78 -2 144
-2 146 -1 2 2 0 33 -6 70 -14 91 -3 123 42 123 41 0 47 -9 70 -95 10 -38 33
-113 50 -165 18 -52 38 -120 45 -150 7 -30 41 -112 75 -183 57 -118 68 -132
140 -198 l78 -71 51 6 c28 3 146 8 261 11 116 3 238 8 272 11 58 5 62 7 53 24
-6 11 -57 51 -115 91 -156 105 -162 112 -170 193 -10 86 -66 189 -108 194 -14
2 -31 10 -37 18 -7 8 -21 14 -31 14 -31 0 -59 36 -59 75 0 21 -15 65 -36 106
-62 123 -64 234 -6 280 l24 19 -24 9 c-13 5 -50 15 -81 22 l-57 14 0 45 c0 30
8 58 25 85 17 29 24 55 25 92 0 52 0 52 -26 43 -35 -13 -34 -14 -34 19 0 19
13 44 36 72 33 39 36 47 30 87 -5 35 -2 49 14 69 23 30 25 43 7 43 -7 0 -20
13 -30 29 -13 22 -22 27 -42 23 -14 -2 -25 -8 -25 -13 0 -18 -17 -8 -28 16
-14 30 -22 31 -55 5z m99 -1102 c4 -6 3 -8 -3 -5 -6 4 -13 0 -17 -8 -3 -8 -13
-15 -21 -15 -9 0 -14 -4 -10 -9 3 -5 0 -13 -6 -17 -8 -4 -9 -3 -5 4 4 7 1 12
-6 12 -13 1 41 50 54 50 4 0 10 -5 14 -12z m200 -74 c8 -19 14 -45 14 -59 0
-36 -27 -98 -40 -90 -5 3 -15 -5 -21 -19 -7 -14 -16 -23 -20 -20 -5 3 -9 1 -9
-5 0 -6 -18 -15 -40 -21 -50 -13 -107 0 -138 33 -31 33 -17 40 25 11 26 -17
49 -24 86 -24 44 0 53 4 88 39 34 34 39 44 39 85 0 26 -6 60 -14 75 -13 25
-13 28 1 28 8 0 22 -15 29 -33z m-283 9 c-4 -10 -2 -14 4 -10 7 5 9 -1 5 -15
l-5 -22 -9 23 c-4 13 -6 27 -2 32 9 15 14 10 7 -8z m-3 -75 c0 -9 -4 -20 -10
-23 -6 -4 -10 9 -10 32 0 28 3 34 10 23 5 -8 10 -23 10 -32z m171 12 c16 0 29
-4 29 -10 0 -5 -11 -10 -25 -10 -20 0 -25 -5 -25 -25 0 -14 -6 -25 -13 -25 -8
0 -11 14 -8 48 2 26 6 41 8 35 3 -7 18 -13 34 -13z"/>
<path d="M4132 8738 c-6 -7 -31 -19 -56 -27 -49 -14 -86 -50 -86 -83 0 -10 -7
-32 -15 -48 -14 -27 -14 -32 0 -54 11 -16 13 -26 6 -31 -20 -12 -11 -26 25
-41 32 -13 35 -18 29 -42 -3 -15 -11 -28 -16 -30 -5 -2 -9 -11 -9 -19 0 -23
-40 -84 -72 -111 -34 -29 -35 -42 -4 -42 14 0 28 -4 31 -10 10 -16 50 -12 107
10 47 18 54 18 69 4 9 -8 19 -27 22 -42 3 -15 17 -52 30 -82 l25 -55 22 38
c17 28 28 37 41 34 14 -4 27 7 49 39 35 52 35 55 14 97 -26 49 -41 60 -74 53
-25 -5 -30 -2 -30 14 0 22 12 25 40 10 15 -8 21 -6 30 9 8 17 2 28 -45 77 -57
61 -62 74 -43 121 6 15 12 34 14 41 6 30 14 42 29 42 20 0 19 5 -6 39 -17 23
-19 33 -10 49 9 17 8 22 -9 27 -11 3 -25 3 -31 -1 -6 -3 -14 -2 -18 3 -11 18
-48 24 -59 11z"/>
<path d="M6560 8662 c-17 -11 -24 -24 -22 -39 3 -18 -3 -24 -25 -28 -15 -3
-41 -12 -56 -20 -25 -13 -33 -12 -76 5 l-48 19 4 -43 c6 -51 -10 -68 -64 -68
-31 0 -44 -7 -74 -39 -30 -33 -42 -39 -76 -39 -32 0 -48 -7 -73 -30 -35 -32
-36 -51 -9 -118 13 -30 12 -34 -4 -43 -29 -17 -20 -47 23 -75 22 -15 40 -31
40 -35 0 -5 -15 -15 -32 -22 l-33 -14 70 -35 c39 -20 79 -45 89 -57 11 -12 29
-21 40 -21 36 0 124 -58 142 -93 22 -42 45 -68 55 -61 14 8 10 82 -6 153 -15
62 -15 65 10 118 14 31 25 59 25 64 0 4 -13 28 -30 52 -35 52 -37 67 -12 97
18 22 20 22 108 11 49 -6 112 -16 140 -22 42 -9 56 -9 81 4 34 18 71 12 128
-22 18 -11 46 -21 62 -23 l28 -3 8 80 c7 78 2 165 -10 165 -4 0 -17 -10 -30
-22 -22 -21 -23 -21 -43 -3 -28 25 -27 81 1 90 29 9 10 27 -34 32 -24 2 -39
-2 -52 -17 -22 -24 -34 -25 -50 -4 -9 13 -16 14 -33 5 -11 -6 -30 -11 -41 -11
-17 0 -21 6 -21 34 0 19 5 38 10 41 6 3 10 14 10 24 0 33 -78 41 -120 13z"/>
<path d="M4261 8582 c1 -4 0 -11 -1 -17 -1 -5 -3 -14 -4 -20 -1 -5 -8 -23 -16
-39 -14 -28 -13 -30 18 -56 18 -14 32 -30 32 -35 0 -5 12 -19 28 -31 24 -20
26 -25 16 -51 -9 -25 -8 -31 12 -46 13 -9 31 -17 41 -17 11 0 28 -6 38 -14 11
-8 25 -12 31 -9 7 2 21 0 31 -5 14 -8 24 -5 43 10 20 16 33 19 77 13 43 -5 53
-4 53 9 0 8 7 21 15 29 12 13 12 15 -5 20 -11 3 -20 12 -20 21 0 9 -7 16 -15
16 -18 0 -33 27 -41 76 -5 32 -2 43 15 58 26 24 27 43 2 51 -10 3 -26 14 -36
25 -23 25 -46 25 -68 0 -18 -22 -52 -27 -62 -9 -4 5 -14 8 -23 6 -10 -2 -28 2
-42 8 -26 13 -120 18 -119 7z"/>
<path d="M5535 8546 c-16 -7 -41 -26 -55 -41 -21 -22 -25 -37 -25 -86 0 -52 3
-62 32 -90 23 -23 42 -32 72 -35 23 -1 41 2 41 7 0 5 -10 9 -22 9 -35 0 -83
34 -97 69 -42 101 78 196 164 129 61 -48 62 -114 3 -175 -39 -41 -20 -44 24
-4 30 27 33 34 33 88 0 50 -4 62 -29 90 -16 18 -45 37 -65 43 -44 12 -39 12
-76 -4z"/>
<path d="M6891 8503 c0 -25 1 -26 9 -8 12 27 12 35 0 35 -5 0 -10 -12 -9 -27z"/>
<path d="M5570 8455 c0 -20 -5 -25 -25 -25 -14 0 -25 -4 -25 -10 0 -5 11 -10
25 -10 20 0 25 -5 25 -26 0 -14 4 -23 10 -19 6 3 10 15 10 26 0 12 7 19 19 19
11 0 23 5 26 10 4 6 -5 10 -19 10 -21 0 -26 5 -26 25 0 14 -4 25 -10 25 -5 0
-10 -11 -10 -25z"/>
<path d="M5985 8221 c-3 -5 -1 -12 5 -16 5 -3 10 1 10 9 0 18 -6 21 -15 7z"/>
<path d="M5364 7969 c-15 -16 -24 -29 -18 -29 5 0 2 -5 -8 -10 -11 -7 -16 -24
-16 -55 0 -28 4 -43 10 -39 5 4 8 19 6 35 -3 16 -1 29 4 29 4 0 8 6 8 14 0 8
18 30 39 48 31 26 36 34 22 35 -10 1 -31 -12 -47 -28z"/>
<path d="M5530 7997 c0 -2 16 -21 35 -43 19 -21 35 -46 35 -54 1 -12 3 -11 11
2 12 21 -3 54 -35 80 -18 15 -46 24 -46 15z"/>
<path d="M6765 7980 c-3 -5 -3 -49 1 -98 l7 -89 -162 5 c-117 3 -161 2 -161
-7 0 -21 -39 -11 -60 16 l-21 28 -19 -25 c-31 -41 -31 -64 -5 -166 l25 -96
-47 -91 c-32 -62 -69 -115 -115 -164 -37 -40 -68 -76 -68 -80 0 -63 -35 -275
-55 -333 -33 -96 -75 -262 -119 -472 -38 -180 -49 -209 -93 -249 -22 -19 -38
-52 -62 -128 -31 -99 -34 -103 -79 -132 -26 -16 -64 -35 -84 -41 -21 -6 -38
-15 -38 -19 0 -9 73 -70 175 -144 44 -33 93 -70 108 -84 27 -24 34 -26 210
-32 100 -4 268 -8 372 -8 l191 -1 119 72 c108 66 125 73 175 74 96 2 165 21
232 62 35 22 187 113 338 202 291 172 470 287 470 302 0 5 16 23 36 40 25 22
34 38 31 52 -2 12 -27 118 -55 236 -28 118 -67 289 -87 380 l-37 165 -87 -2
c-47 -2 -193 -8 -324 -14 l-238 -10 -42 34 c-104 87 -143 133 -170 200 -15 37
-39 86 -52 108 -14 22 -37 83 -51 137 -14 53 -36 129 -49 167 -13 39 -34 103
-45 143 -16 57 -25 72 -40 72 -10 0 -22 -4 -25 -10z m132 -1201 c64 -24 105
-87 105 -160 0 -59 -22 -98 -75 -133 -99 -64 -231 -6 -253 111 -22 120 108
226 223 182z m1155 -408 c7 11 8 9 6 -6 -2 -11 -13 -25 -26 -31 -12 -6 -19
-14 -15 -17 3 -4 -1 -7 -10 -7 -14 0 -15 3 -5 19 7 11 16 17 20 15 4 -3 8 5 9
18 0 13 3 17 6 9 5 -11 7 -11 15 0z m-92 -115 c0 -2 -9 -6 -20 -9 -11 -3 -18
-1 -14 4 5 9 34 13 34 5z"/>
<path d="M6784 6746 c-48 -21 -74 -65 -74 -125 0 -44 5 -56 33 -87 59 -65 162
-56 207 19 41 66 14 158 -54 191 -41 19 -71 20 -112 2z m68 -83 c3 -24 7 -28
31 -25 19 3 27 -1 27 -12 0 -11 -9 -16 -30 -16 -27 0 -30 -3 -30 -31 0 -31
-24 -38 -26 -8 -2 35 -6 39 -30 39 -31 0 -28 23 4 28 16 2 22 10 22 28 0 34
28 31 32 -3z"/>
<path d="M5460 7895 c0 -18 -5 -25 -20 -25 -11 0 -20 -4 -20 -10 0 -5 3 -9 8
-9 21 4 31 -4 37 -28 l8 -28 6 25 c4 14 16 26 26 28 33 6 42 22 12 22 -25 0
-32 8 -28 38 1 6 -5 12 -14 12 -9 0 -15 -9 -15 -25z"/>
<path d="M3959 7877 c-52 -35 -79 -82 -79 -139 0 -68 41 -141 70 -123 7 4 2
17 -14 36 -65 77 -30 194 65 219 44 12 98 1 119 -26 7 -7 22 -14 33 -14 20 0
20 0 1 21 -48 54 -137 66 -195 26z"/>
<path d="M4030 7780 c0 -11 -8 -23 -17 -26 -45 -15 -48 -18 -23 -21 14 -3 31
-12 38 -21 11 -14 12 -14 12 5 0 17 5 20 23 16 20 -4 21 -3 5 10 -10 8 -18 24
-18 36 0 11 -4 21 -10 21 -5 0 -10 -9 -10 -20z"/>
<path d="M5577 7776 c-3 -8 -2 -18 3 -21 13 -8 24 15 12 27 -6 6 -11 4 -15 -6z"/>
<path d="M5360 7761 c0 -14 48 -42 55 -32 3 5 1 12 -5 16 -5 3 -10 3 -10 -2 0
-4 -5 0 -11 10 -10 18 -29 23 -29 8z"/>
<path d="M6301 7670 c0 -8 4 -22 9 -30 12 -18 12 -2 0 25 -6 13 -9 15 -9 5z"/>
<path d="M6157 7598 c2 -5 10 -8 18 -8 8 0 16 3 18 8 3 4 -5 7 -18 7 -13 0
-21 -3 -18 -7z"/>
<path d="M4685 7566 c-16 -8 -43 -29 -60 -47 -16 -18 -22 -27 -12 -20 9 7 17
10 17 6 0 -5 9 0 20 10 11 10 17 22 13 28 -4 6 0 8 10 4 9 -3 22 0 30 7 7 8
26 11 44 9 17 -3 34 0 37 6 10 16 -62 13 -99 -3z"/>
<path d="M4794 7558 c-4 -7 -3 -10 1 -5 14 12 84 -71 91 -108 3 -18 1 -50 -6
-69 -12 -39 -71 -96 -98 -96 -14 0 -14 -2 -3 -9 26 -17 77 16 110 69 39 64 22
152 -38 203 -36 30 -47 33 -57 15z"/>
<path d="M4746 7466 c3 -7 -3 -22 -13 -31 -13 -13 -14 -20 -5 -23 6 -2 12 -15
12 -28 0 -13 5 -24 10 -24 6 0 10 11 10 25 0 20 5 25 25 25 14 0 25 5 25 10 0
6 -11 10 -25 10 -20 0 -25 5 -25 25 0 14 -4 25 -10 25 -5 0 -7 -6 -4 -14z"/>
<path d="M4591 7427 c-1 -69 44 -159 65 -126 4 7 3 9 -4 5 -11 -7 -34 25 -38
54 -2 8 -7 38 -12 65 l-10 50 -1 -48z"/>
<path d="M4666 7292 c-3 -5 6 -14 20 -21 31 -14 34 -14 34 0 0 5 -4 8 -9 4 -5
-3 -16 2 -25 10 -8 8 -17 11 -20 7z"/>
<path d="M5595 7106 c-16 -8 -40 -23 -52 -34 -28 -27 -49 -90 -35 -104 7 -7
10 -5 8 8 -3 20 4 32 50 78 53 52 54 52 124 40 36 -6 61 -12 57 -13 -5 0 3
-15 17 -32 14 -17 26 -38 26 -47 1 -16 2 -15 11 0 13 22 0 47 -42 82 -20 17
-38 25 -50 21 -11 -4 -19 -2 -19 4 0 15 -59 13 -95 -3z"/>
<path d="M5648 6998 c-2 -15 -11 -24 -25 -26 -13 -2 -23 -7 -23 -12 0 -5 10
-10 23 -12 16 -2 23 -11 25 -30 4 -38 22 -35 22 3 0 25 3 30 22 27 11 -2 23 3
25 10 3 7 -5 12 -21 12 -21 0 -26 5 -26 25 0 31 -17 33 -22 3z"/>
<path d="M5809 6985 c-4 -5 -9 -26 -13 -46 -4 -21 -16 -50 -28 -65 -21 -25
-32 -54 -22 -54 14 0 65 68 70 95 7 37 2 85 -7 70z"/>
<path d="M5705 6820 c3 -5 10 -10 16 -10 5 0 9 5 9 10 0 6 -7 10 -16 10 -8 0
-12 -4 -9 -10z"/>
<path d="M3344 6500 c-22 -9 -74 -65 -74 -80 0 -5 4 -12 10 -15 6 -4 7 1 3 11
-4 11 -3 15 5 10 6 -3 15 2 21 12 5 10 21 24 35 31 14 8 27 20 30 27 6 16 0
16 -30 4z"/>
<path d="M3493 6485 c0 -8 3 -13 6 -11 10 4 49 -42 42 -50 -3 -4 0 -3 8 1 11
6 13 4 7 -11 -5 -15 -4 -16 5 -7 9 9 6 19 -10 42 -27 38 -58 57 -58 36z"/>
<path d="M3408 6393 c-2 -20 -9 -29 -25 -31 -31 -5 -29 -22 2 -22 20 0 25 -5
25 -25 0 -14 5 -25 10 -25 6 0 10 11 10 25 0 20 5 25 25 25 14 0 25 6 25 14 0
9 -8 12 -25 8 -22 -4 -25 -1 -25 27 0 38 -17 41 -22 4z"/>
<path d="M3572 6380 c0 -14 2 -19 5 -12 2 6 2 18 0 25 -3 6 -5 1 -5 -13z"/>
<path d="M3527 6271 c-21 -30 -23 -39 -11 -37 18 3 53 44 54 64 0 22 -14 12
-43 -27z"/>
<path d="M3276 6291 c-7 -11 29 -58 54 -71 37 -20 29 8 -10 35 -22 15 -37 31
-34 36 3 5 3 9 0 9 -3 0 -7 -4 -10 -9z"/>
<path d="M7950 6213 c-36 -24 -236 -147 -445 -272 -366 -219 -383 -228 -455
-239 -41 -7 -85 -9 -97 -6 -15 4 -55 -14 -141 -65 l-121 -71 34 -101 c39 -116
40 -114 -38 -196 l-50 -53 22 -84 c13 -54 21 -117 21 -171 0 -83 1 -85 32
-112 114 -99 155 -141 170 -172 22 -46 22 -61 0 -61 -26 0 -52 -31 -52 -61 0
-32 9 -43 47 -63 37 -19 62 -61 91 -156 11 -36 55 -135 97 -220 42 -85 80
-161 84 -169 3 -7 47 -30 96 -50 50 -21 146 -70 215 -110 68 -40 165 -93 215
-118 49 -25 115 -61 145 -81 l54 -34 151 6 c82 3 319 13 525 22 206 9 376 17
378 18 1 2 -11 32 -27 68 l-29 65 -163 53 -162 52 -60 -16 c-56 -16 -61 -16
-90 2 -22 12 -34 29 -40 55 -6 25 -21 47 -43 63 -33 25 -34 29 -34 93 0 82
-19 159 -49 197 -51 64 -174 241 -192 277 -17 33 -18 40 -5 65 19 37 48 61
113 97 45 24 58 37 68 69 15 43 9 100 -11 117 -8 6 -14 23 -14 38 0 14 -9 53
-19 86 -18 58 -18 109 0 121 5 3 9 19 9 35 0 16 6 32 14 35 18 7 36 57 36 99
0 17 -12 65 -26 106 -26 73 -26 75 -14 195 15 144 1 322 -32 419 -25 72 -87
198 -120 241 l-23 31 -65 -44z m-415 -1353 c3 -5 1 -10 -6 -10 -7 0 -27 -12
-46 -26 -45 -34 -57 -21 -15 17 33 30 56 36 67 19z m167 -45 c20 -23 23 -45 7
-45 -5 0 -8 4 -5 9 3 5 -1 12 -9 15 -8 3 -14 11 -13 18 2 7 -4 12 -12 13 -8 0
-16 9 -19 20 -3 17 -1 18 15 5 11 -8 27 -23 36 -35z m-122 -60 c0 -20 5 -25
25 -25 31 0 33 -17 3 -22 -17 -2 -24 -11 -26 -30 -4 -36 -20 -36 -24 -1 -2 19
-10 29 -28 33 l-25 6 28 7 c20 6 27 14 27 32 0 14 5 25 10 25 6 0 10 -11 10
-25z m-157 -55 c3 -34 2 -47 -3 -35 -8 19 -14 103 -6 94 2 -2 6 -29 9 -59z
m288 -68 c-14 -26 -51 -57 -51 -43 0 18 42 71 52 65 4 -3 4 -13 -1 -22z m-258
-9 c-4 -11 -3 -14 6 -9 7 5 20 1 29 -7 9 -9 29 -19 45 -22 33 -9 36 -25 5 -25
-44 0 -121 64 -101 83 11 11 22 -3 16 -20z"/>
<path d="M4263 5470 c-39 -23 -59 -56 -41 -66 7 -4 9 -3 5 1 -4 5 15 23 42 41
28 17 48 34 44 38 -10 9 -15 8 -50 -14z"/>
<path d="M4385 5480 c-4 -6 1 -7 11 -3 10 4 15 2 11 -3 -3 -5 7 -19 23 -29 16
-11 35 -30 41 -42 8 -15 16 -20 22 -14 14 14 -16 57 -56 81 -36 23 -43 24 -52
10z"/>
<path d="M4338 5373 c-2 -20 -9 -29 -25 -31 -31 -5 -29 -22 2 -22 20 0 25 -5
25 -25 0 -14 5 -25 10 -25 6 0 10 11 10 25 0 20 5 25 25 25 14 0 25 5 25 10 0
6 -11 10 -25 10 -20 0 -25 5 -25 24 0 35 -18 42 -22 9z"/>
<path d="M4190 5341 c0 -23 5 -41 10 -41 6 0 10 15 10 34 0 19 -4 38 -10 41
-6 4 -10 -10 -10 -34z"/>
<path d="M4498 5360 c-7 -24 -3 -38 8 -28 3 4 4 17 2 30 l-3 23 -7 -25z"/>
<path d="M4501 5308 c0 -9 -4 -25 -7 -35 -5 -17 -5 -17 6 0 6 10 9 25 7 35 -4
15 -5 15 -6 0z"/>
<path d="M4205 5280 c-15 -24 71 -110 95 -95 8 5 1 14 -19 26 -17 10 -40 33
-50 50 -12 20 -21 27 -26 19z"/>
<path d="M4432 5224 c-23 -18 -38 -36 -32 -39 13 -8 39 7 68 38 35 38 13 38
-36 1z"/>
<path d="M6425 3297 c-61 -29 -101 -104 -90 -171 7 -44 43 -99 78 -117 53 -29
130 -32 140 -6 3 8 -10 11 -43 9 -93 -7 -154 52 -147 143 7 82 19 117 40 114
7 -1 26 3 42 10 115 48 236 -80 180 -189 -8 -16 -11 -31 -6 -34 17 -11 34 25
39 78 5 64 -16 116 -61 148 -38 27 -128 35 -172 15z"/>
<path d="M6490 3199 c0 -5 5 -7 10 -4 6 3 10 8 10 11 0 2 -4 4 -10 4 -5 0 -10
-5 -10 -11z"/>
<path d="M6535 3150 c-3 -5 1 -10 9 -10 9 0 16 5 16 10 0 6 -4 10 -9 10 -6 0
-13 -4 -16 -10z"/>
<path d="M6490 3105 c0 -14 5 -25 10 -25 6 0 10 11 10 25 0 14 -4 25 -10 25
-5 0 -10 -11 -10 -25z"/>
</g>
</svg>
